<?xml version="1.0" standalone="no"?>
<!DOCTYPE svg PUBLIC "-//W3C//DTD SVG 20010904//EN"
 "http://www.w3.org/TR/2001/REC-SVG-20010904/DTD/svg10.dtd">
<svg version="1.0" xmlns="http://www.w3.org/2000/svg"
 width="442.000000pt" height="434.000000pt" viewBox="0 0 442.000000 434.000000"
 preserveAspectRatio="xMidYMid meet">

<g transform="translate(0.000000,434.000000) scale(0.100000,-0.100000)"
fill="#000000" stroke="none">
<path d="M1953 4139 c-576 -67 -1108 -395 -1434 -883 -301 -450 -406 -991
-298 -1529 147 -733 733 -1348 1464 -1537 319 -82 680 -84 996 -4 625 157
1142 609 1382 1209 43 107 90 275 113 400 26 140 31 466 9 618 -29 206 -86
399 -176 595 l-33 72 -1286 -2 -1285 -3 -75 -36 c-195 -94 -302 -299 -265
-510 7 -45 25 -101 42 -131 26 -48 202 -289 673 -923 86 -115 214 -288 285
-384 l129 -174 26 33 c27 35 335 452 450 610 38 52 182 248 320 434 137 187
250 343 250 348 0 4 -121 8 -270 8 l-270 0 -83 -112 c-46 -62 -150 -205 -232
-317 -83 -112 -160 -215 -171 -229 l-22 -26 -173 234 c-96 129 -244 329 -330
445 -86 115 -154 213 -150 218 4 4 475 6 1046 5 l1039 -3 13 -50 c47 -177 58
-441 28 -620 -9 -55 -35 -153 -56 -219 -165 -504 -584 -881 -1109 -998 -91
-20 -132 -23 -305 -23 -154 0 -220 4 -285 18 -533 112 -951 475 -1129 980 -60
170 -75 270 -75 487 0 164 3 211 22 297 135 622 630 1087 1255 1179 142 21
369 14 505 -15 201 -43 376 -117 545 -231 l104 -70 346 0 c191 0 347 3 347 6
0 16 -136 178 -215 256 -265 264 -585 443 -960 537 -188 47 -494 64 -702 40z"/>
</g>
</svg>
